<svg width="24" height="24" viewBox="0 0 24 24" fill="none" xmlns="http://www.w3.org/2000/svg">
<g clip-path="url(#clip0_23706_7815)">
<path d="M0.400085 18.7992C0.620911 18.7992 0.799988 18.6201 0.799988 18.3993V17.5991C0.799988 17.3783 0.620911 17.1992 0.400085 17.1992C0.179077 17.1992 0 17.3783 0 17.5991V18.3993C0 18.6201 0.179077 18.7992 0.400085 18.7992Z" fill="#6016EF"/>
<path d="M2.00018 18.8008V17.2009C2.00018 16.9799 1.82111 16.8008 1.6001 16.8008C1.37927 16.8008 1.2002 16.9799 1.2002 17.2009V18.8008C1.2002 19.0219 1.37927 19.2009 1.6001 19.2009C1.82111 19.2009 2.00018 19.0219 2.00018 18.8008Z" fill="#6016EF"/>
<path d="M6.79999 18.8008V17.2009C6.79999 16.9799 6.62091 16.8008 6.40009 16.8008C6.17908 16.8008 6 16.9799 6 17.2009V18.8008C6 19.0219 6.17908 19.2009 6.40009 19.2009C6.62091 19.2009 6.79999 19.0219 6.79999 18.8008Z" fill="#6016EF"/>
<path d="M3.59979 19.6V16.4001C3.59979 16.1791 3.42072 16 3.19971 16C2.97888 16 2.7998 16.1791 2.7998 16.4001V19.6C2.7998 19.821 2.97888 20.0001 3.19971 20.0001C3.42072 20.0001 3.59979 19.821 3.59979 19.6Z" fill="#6016EF"/>
<path d="M5.19989 19.6V16.4001C5.19989 16.1791 5.02081 16 4.7998 16C4.57898 16 4.3999 16.1791 4.3999 16.4001V19.6C4.3999 19.821 4.57898 20.0001 4.7998 20.0001C5.02081 20.0001 5.19989 19.821 5.19989 19.6Z" fill="#6016EF"/>
<path d="M8.40009 20.3992V15.5993C8.40009 15.3783 8.22101 15.1992 8.00018 15.1992C7.77917 15.1992 7.6001 15.3783 7.6001 15.5993V20.3992C7.6001 20.6202 7.77917 20.7993 8.00018 20.7993C8.22101 20.7993 8.40009 20.6202 8.40009 20.3992Z" fill="#6016EF"/>
<path d="M10.0002 21.2004V14.8005C10.0002 14.5795 9.82111 14.4004 9.60028 14.4004C9.37927 14.4004 9.2002 14.5795 9.2002 14.8005V21.2004C9.2002 21.4214 9.37927 21.6005 9.60028 21.6005C9.82111 21.6005 10.0002 21.4214 10.0002 21.2004Z" fill="#6016EF"/>
<path d="M11.5998 23.5999V12.4001C11.5998 12.1791 11.4207 12 11.1999 12C10.9789 12 10.7998 12.1791 10.7998 12.4001V23.5999C10.7998 23.8209 10.9789 24 11.1999 24C11.4207 24 11.5998 23.8209 11.5998 23.5999Z" fill="#6016EF"/>
<path d="M23.6001 17.1992C23.3793 17.1992 23.2002 17.3783 23.2002 17.5991V18.3993C23.2002 18.6201 23.3793 18.7992 23.6001 18.7992C23.8211 18.7992 24.0002 18.6201 24.0002 18.3993V17.5991C24.0002 17.3783 23.8211 17.1992 23.6001 17.1992Z" fill="#6016EF"/>
<path d="M22.8 18.8008V17.2009C22.8 16.9799 22.6209 16.8008 22.4001 16.8008C22.1791 16.8008 22 16.9799 22 17.2009V18.8008C22 19.0219 22.1791 19.2009 22.4001 19.2009C22.6209 19.2009 22.8 19.0219 22.8 18.8008Z" fill="#6016EF"/>
<path d="M18.0002 18.8008V17.2009C18.0002 16.9799 17.8211 16.8008 17.6001 16.8008C17.3793 16.8008 17.2002 16.9799 17.2002 17.2009V18.8008C17.2002 19.0219 17.3793 19.2009 17.6001 19.2009C17.8211 19.2009 18.0002 19.0219 18.0002 18.8008Z" fill="#6016EF"/>
<path d="M21.1999 19.6V16.4001C21.1999 16.1791 21.0208 16 20.8 16C20.579 16 20.3999 16.1791 20.3999 16.4001V19.6C20.3999 19.821 20.579 20.0001 20.8 20.0001C21.0208 20.0001 21.1999 19.821 21.1999 19.6Z" fill="#6016EF"/>
<path d="M19.5998 19.6V16.4001C19.5998 16.1791 19.4207 16 19.1999 16C18.9789 16 18.7998 16.1791 18.7998 16.4001V19.6C18.7998 19.821 18.9789 20.0001 19.1999 20.0001C19.4207 20.0001 19.5998 19.821 19.5998 19.6Z" fill="#6016EF"/>
<path d="M16.4001 20.3992V15.5993C16.4001 15.3783 16.221 15.1992 16 15.1992C15.7792 15.1992 15.6001 15.3783 15.6001 15.5993V20.3992C15.6001 20.6202 15.7792 20.7993 16 20.7993C16.221 20.7993 16.4001 20.6202 16.4001 20.3992Z" fill="#6016EF"/>
<path d="M14.8 21.2004V14.8005C14.8 14.5795 14.6209 14.4004 14.3999 14.4004C14.1791 14.4004 14 14.5795 14 14.8005V21.2004C14 21.4214 14.1791 21.6005 14.3999 21.6005C14.6209 21.6005 14.8 21.4214 14.8 21.2004Z" fill="#6016EF"/>
<path d="M13.1999 23.5999V12.4001C13.1999 12.1791 13.0208 12 12.7998 12C12.579 12 12.3999 12.1791 12.3999 12.4001V23.5999C12.3999 23.8209 12.579 24 12.7998 24C13.0208 24 13.1999 23.8209 13.1999 23.5999Z" fill="#6016EF"/>
<path d="M21.6002 0H13.6002C12.2754 0.00146484 11.2017 1.0752 11.2002 2.39996V8.00006C11.2017 9.32483 12.2754 10.3986 13.6002 10.4H14.2971L14.0034 12.7504C13.9836 12.9086 14.0596 13.0635 14.1969 13.1444C14.3342 13.2255 14.5065 13.2173 14.6356 13.1234L18.3801 10.4H21.6002C22.925 10.3986 23.9987 9.32483 24.0002 8.00006V2.39996C23.9987 1.0752 22.925 0.00146484 21.6002 0ZM23.2002 8.00006C23.1993 8.88336 22.4835 9.59912 21.6002 9.60004H19.1931C19.1959 9.51617 19.1715 9.43378 19.1235 9.36493C19.0613 9.27887 18.9673 9.22119 18.8626 9.20471C18.7577 9.18805 18.6506 9.21405 18.5649 9.27649L14.9117 11.9335L15.197 9.64966C15.2168 9.50684 15.1582 9.36456 15.0436 9.27704C14.929 9.18951 14.7762 9.17047 14.6437 9.22705C14.5113 9.28363 14.4194 9.40723 14.4033 9.55042L14.397 9.60004H13.6002C12.7169 9.59912 12.0011 8.88336 12.0002 8.00006V2.39996C12.0011 1.51666 12.7169 0.800903 13.6002 0.799988H21.6002C22.4835 0.800903 23.1993 1.51666 23.2002 2.39996V8.00006Z" fill="#6016EF"/>
<path d="M14.4001 4C13.7374 4 13.2002 4.53723 13.2002 5.20007C13.2002 5.86273 13.7374 6.40015 14.4001 6.40015C15.0629 6.40015 15.6002 5.86273 15.6002 5.20007C15.5994 4.5376 15.0626 4.00073 14.4001 4ZM14.4001 5.59998C14.1793 5.59998 14.0002 5.4209 14.0002 5.20007C14.0002 4.97906 14.1793 4.79999 14.4001 4.79999C14.6211 4.79999 14.8002 4.97906 14.8002 5.20007C14.8 5.4209 14.6209 5.59979 14.4001 5.59998Z" fill="#6016EF"/>
<path d="M17.5998 4C16.9371 4 16.3999 4.53723 16.3999 5.20007C16.3999 5.86273 16.9371 6.40015 17.5998 6.40015C18.2626 6.40015 18.7999 5.86273 18.7999 5.20007C18.7991 4.5376 18.2623 4.00073 17.5998 4ZM17.5998 5.59998C17.379 5.59998 17.1999 5.4209 17.1999 5.20007C17.1999 4.97906 17.379 4.79999 17.5998 4.79999C17.8208 4.79999 17.9999 4.97906 17.9999 5.20007C17.9997 5.4209 17.8208 5.59979 17.5998 5.59998Z" fill="#6016EF"/>
<path d="M20.8002 4C20.1373 4 19.6001 4.53723 19.6001 5.20007C19.6001 5.86273 20.1373 6.40015 20.8002 6.40015C21.4628 6.40015 22.0001 5.86273 22.0001 5.20007C21.9993 4.5376 21.4626 4.00073 20.8002 4ZM20.8002 5.59998C20.5792 5.59998 20.4001 5.4209 20.4001 5.20007C20.4001 4.97906 20.5792 4.79999 20.8002 4.79999C21.021 4.79999 21.2001 4.97906 21.2001 5.20007C21.1999 5.4209 21.021 5.59979 20.8002 5.59998Z" fill="#6016EF"/>
</g>
<defs>
<clipPath id="clip0_23706_7815">
<rect width="24" height="24" fill="white"/>
</clipPath>
</defs>
</svg>
