<svg width="24" height="24" viewBox="0 0 24 24" fill="none" xmlns="http://www.w3.org/2000/svg">
<g clip-path="url(#clip0_33048_24586)">
<path fill-rule="evenodd" clip-rule="evenodd" d="M14 14H6V12H14V14ZM18 11H6V9H18V11ZM18 8H6V6H15C15.3667 6.48333 15.8042 6.8875 16.3125 7.2125C16.8208 7.5375 17.3833 7.76667 18 7.9V8ZM2 4V22L6 18H20C20.55 18 21.0208 17.8042 21.4125 17.4125C21.8042 17.0208 22 16.55 22 16V7C21.7167 7.23333 21.4083 7.42083 21.075 7.5625C20.7417 7.70417 20.3833 7.81667 20 7.9V16H5.15L4 17.125V4H14.1C14.0333 3.66667 14 3.33333 14 3C14 2.66667 14.0333 2.33333 14.1 2H4C3.45 2 2.97917 2.19583 2.5875 2.5875C2.19583 2.97917 2 3.45 2 4Z" fill="#470EB5"/>
<circle cx="19" cy="3" r="3" fill="#38AB10"/>
</g>
<defs>
<clipPath id="clip0_33048_24586">
<rect width="24" height="24" fill="white"/>
</clipPath>
</defs>
</svg>
