<svg width="74" height="74" viewBox="0 0 74 74" fill="none" xmlns="http://www.w3.org/2000/svg">
<circle cx="36.8562" cy="36.8562" r="36.8562" fill="#372ECD"/>
<path d="M35.9666 50.6003C29.6694 50.1869 25.0503 45.8455 24.6055 40.3131C24.559 39.7346 24.6298 39.0673 25.1274 38.7687C25.4919 38.5501 25.9245 38.5681 26.2777 38.823C26.6967 39.1253 26.7553 39.6998 26.8173 40.2127C27.4092 45.1067 31.3987 48.6419 36.7749 48.6419C45.019 47.9893 46.878 42.5512 46.878 39.4329C46.878 38.7227 47.977 38.2161 48.7012 38.8013C49.1011 39.1244 49.1503 39.6979 49.1127 40.2107C48.7274 45.4679 44.4443 49.9781 37.664 50.6003V53.3559C41.6244 53.3559 44.5341 54.0085 44.5341 55.9664H29.1773C28.9349 53.791 33.1378 53.3559 35.9666 53.3559V50.6003Z" fill="white"/>
<path d="M28.9349 25.8327V40.0857C29.9597 47.7963 42.3637 48.8833 44.6998 40.7226C44.8192 40.3054 44.8574 39.867 44.8574 39.4329V24.64C44.0057 18.042 32.3992 15.3025 29.2931 23.4972C29.0123 24.2379 28.9349 25.0406 28.9349 25.8327Z" fill="white"/>
<path d="M35.9666 50.6003C29.6694 50.1869 25.0503 45.8455 24.6055 40.3131C24.559 39.7346 24.6298 39.0673 25.1274 38.7687C25.4919 38.5501 25.9245 38.5681 26.2777 38.823C26.6967 39.1253 26.7553 39.6998 26.8173 40.2127C27.4092 45.1067 31.3987 48.6419 36.7749 48.6419C45.019 47.9893 46.878 42.5512 46.878 39.4329C46.878 38.7227 47.977 38.2161 48.7012 38.8013C49.1011 39.1244 49.1503 39.6979 49.1127 40.2107C48.7274 45.4679 44.4443 49.9781 37.664 50.6003V53.3559C41.6244 53.3559 44.5341 54.0085 44.5341 55.9664H29.1773C28.9349 53.791 33.1378 53.3559 35.9666 53.3559V50.6003Z" stroke="black"/>
<path d="M28.9349 25.8327V40.0857C29.9597 47.7963 42.3637 48.8833 44.6998 40.7226C44.8192 40.3054 44.8574 39.867 44.8574 39.4329V24.64C44.0057 18.042 32.3992 15.3025 29.2931 23.4972C29.0123 24.2379 28.9349 25.0406 28.9349 25.8327Z" stroke="black"/>
</svg>
