<svg width="119" height="119" viewBox="0 0 119 119" fill="none" xmlns="http://www.w3.org/2000/svg">
<circle cx="59.5002" cy="59.8562" r="36.8562" fill="#372ECD"/>
<path d="M55.7456 46.625V71.375C55.7456 72.2701 55.39 73.1286 54.7571 73.7615C54.1242 74.3944 53.2657 74.75 52.3706 74.75H51.2456C50.3505 74.75 49.4921 74.3944 48.8591 73.7615C48.2262 73.1286 47.8706 72.2701 47.8706 71.375V46.625C47.8706 45.7299 48.2262 44.8714 48.8591 44.2385C49.4921 43.6056 50.3505 43.25 51.2456 43.25H52.3706C53.2657 43.25 54.1242 43.6056 54.7571 44.2385C55.39 44.8714 55.7456 45.7299 55.7456 46.625ZM66.9956 43.25H65.8706C64.9755 43.25 64.1171 43.6056 63.4841 44.2385C62.8512 44.8714 62.4956 45.7299 62.4956 46.625V71.375C62.4956 72.2701 62.8512 73.1286 63.4841 73.7615C64.1171 74.3944 64.9755 74.75 65.8706 74.75H66.9956C67.8907 74.75 68.7492 74.3944 69.3821 73.7615C70.015 73.1286 70.3706 72.2701 70.3706 71.375V46.625C70.3706 45.7299 70.015 44.8714 69.3821 44.2385C68.7492 43.6056 67.8907 43.25 66.9956 43.25Z" fill="white"/>
<circle cx="59.4998" cy="59.3797" r="42.6261" stroke="white" stroke-width="0.745562"/>
<circle cx="59.4998" cy="59.3797" r="42.6261" stroke="white" stroke-width="0.745562"/>
<circle cx="59.4998" cy="59.3797" r="42.6261" stroke="#A8A8A8" stroke-width="0.745562"/>
<circle cx="59.1588" cy="59.7198" r="51.0836" stroke="#B7B7B7" stroke-width="0.893491"/>
<circle cx="59.5" cy="59.3794" r="58.8646" stroke="#A8A8A8" stroke-width="1.02959"/>
</svg>
